<?xml version="1.0" standalone="no"?>
<!DOCTYPE svg PUBLIC "-//W3C//DTD SVG 20010904//EN"
 "http://www.w3.org/TR/2001/REC-SVG-20010904/DTD/svg10.dtd">
<svg version="1.0" xmlns="http://www.w3.org/2000/svg"
 width="814.000000pt" height="814.000000pt" viewBox="0 0 814.000000 814.000000"
 preserveAspectRatio="xMidYMid meet">
<metadata>
Created by potrace 1.14, written by Peter Selinger 2001-2017
</metadata>
<g transform="translate(0.000000,814.000000) scale(0.100000,-0.100000)"
fill="#000000" stroke="none">
<path d="M5358 7595 c-2 -2 -23 -5 -48 -8 -76 -9 -195 -43 -430 -123 -307
-104 -491 -158 -613 -179 -17 -4 -50 -10 -72 -15 -103 -23 -199 -30 -425 -35
-219 -5 -356 -20 -530 -61 -36 -9 -75 -18 -87 -20 -35 -7 -325 -104 -348 -117
-11 -6 -25 -12 -32 -13 -28 -5 -325 -155 -403 -204 -127 -80 -188 -129 -314
-257 -127 -128 -141 -154 -107 -202 12 -16 21 -32 21 -34 0 -3 18 -43 39 -89
49 -103 130 -325 160 -438 13 -47 27 -96 31 -110 8 -21 21 -82 44 -206 6 -28
13 -77 20 -134 4 -25 9 -63 12 -85 13 -92 11 -443 -2 -555 -12 -92 -41 -251
-58 -315 -47 -178 -91 -291 -202 -510 -87 -173 -110 -227 -163 -385 -55 -162
-93 -320 -106 -435 -4 -33 -9 -62 -10 -65 -2 -3 -7 -50 -11 -105 -14 -181 -8
-472 13 -615 46 -320 125 -609 219 -808 36 -74 59 -108 117 -166 173 -173 471
-318 762 -370 17 -3 39 -8 50 -10 11 -2 40 -7 65 -11 25 -4 52 -9 60 -10 55
-10 109 -18 130 -20 14 -2 41 -6 60 -9 19 -3 60 -8 90 -11 30 -3 66 -7 80 -9
14 -3 57 -7 95 -10 39 -4 84 -8 100 -10 17 -2 75 -7 130 -11 55 -4 118 -9 140
-10 62 -6 317 -20 545 -31 157 -7 181 -9 255 -23 33 -6 74 -13 90 -16 17 -2
41 -7 55 -10 14 -3 36 -7 50 -10 14 -3 36 -7 50 -10 14 -3 41 -8 60 -11 19 -3
37 -7 40 -9 3 -2 26 -6 50 -10 25 -3 52 -8 60 -10 30 -9 239 -19 390 -19 181
-1 203 6 251 82 38 59 201 382 193 382 -4 0 -1 6 5 14 6 7 33 71 60 142 128
338 170 636 126 894 -13 78 -61 216 -120 345 -45 99 -151 389 -184 500 -45
157 -59 220 -86 380 -29 177 -28 463 4 681 23 159 96 425 156 569 7 17 23 55
35 85 13 30 43 98 67 150 130 274 158 356 199 575 38 205 37 588 -3 755 -3 14
-7 39 -8 55 -6 66 -112 465 -133 500 -4 6 -8 17 -9 25 -1 8 -27 78 -58 155
-67 166 -171 378 -257 521 -60 102 -62 104 -97 103 -20 -1 -47 -4 -61 -8 -16
-5 -40 -1 -65 10 -34 14 -129 31 -137 24z"/>
</g>
</svg>
